# xmcd CD database file
#
# Track frame offsets:
#	150
#	13934
#	26900
#	39542
#	59259
#	73413
#	87870
#	98962
#	116735
#	132304
#	148038
#	161450
#	172769
#
# Disc length: 2517 seconds
#
# Revision: 0
# Processed by: cddbd v1.5.2PL0 Copyright (c) Steve Scherf et al.
# Submitted via: CDex 1.70beta2
#
DISCID=b709d30d
DTITLE=Route Sixty-Six - The Hottest Band In Town
DYEAR=1999
DGENRE=Country
TTITLE0=Untold Stories
TTITLE1=Heart Over Mind
TTITLE2=Roses In the Snow
TTITLE3=On The Levee
TTITLE4=Headin' For The Hills
TTITLE5=Lost River
TTITLE6=Hello Trouble
TTITLE7=Could Be The Mississippi
TTITLE8=Cajun Born
TTITLE9=Hickory Wind
TTITLE10=Your Cheatin' Heart
TTITLE11=Headin' West
TTITLE12=Once More
EXTD=YEAR: 1999
EXTT0=
EXTT1=
EXTT2=
EXTT3=
EXTT4=
EXTT5=
EXTT6=
EXTT7=
EXTT8=
EXTT9=
EXTT10=
EXTT11=
EXTT12=
PLAYORDER=
